<svg width="1200" height="840" viewBox="0 0 1200 840" fill="none" xmlns="http://www.w3.org/2000/svg">
  <rect width="1200" height="840" rx="32" fill="#CBD5E1"/>
  <rect x="96" y="52" width="1008" height="736" rx="28" fill="#F8FAFC"/>
  <rect x="96" y="52" width="560" height="736" rx="28" fill="#1E293B"/>
  <rect x="156" y="118" width="180" height="20" rx="10" fill="#E2E8F0"/>
  <rect x="156" y="168" width="320" height="18" rx="9" fill="#64748B"/>
  <rect x="156" y="214" width="220" height="18" rx="9" fill="#475569"/>
  <rect x="156" y="286" width="148" height="56" rx="28" fill="#F59E0B"/>
  <rect x="326" y="286" width="148" height="56" rx="28" stroke="#64748B"/>
  <rect x="702" y="116" width="344" height="160" rx="20" fill="#E2E8F0"/>
  <rect x="702" y="308" width="150" height="150" rx="20" fill="#E2E8F0"/>
  <rect x="876" y="308" width="170" height="150" rx="20" fill="#E2E8F0"/>
  <rect x="702" y="490" width="344" height="240" rx="20" fill="#E2E8F0"/>
  <rect x="156" y="420" width="444" height="258" rx="24" fill="#334155"/>
</svg>
