<svg width="1200" height="840" viewBox="0 0 1200 840" fill="none" xmlns="http://www.w3.org/2000/svg">
  <rect width="1200" height="840" rx="32" fill="#111827"/>
  <rect x="88" y="60" width="1024" height="720" rx="28" fill="#F5F5F4"/>
  <rect x="120" y="96" width="420" height="648" rx="24" fill="white"/>
  <rect x="570" y="96" width="510" height="648" rx="24" fill="#E7E5E4"/>
  <rect x="152" y="138" width="148" height="18" rx="9" fill="#A8A29E"/>
  <rect x="152" y="186" width="356" height="220" rx="20" fill="#F5F5F4"/>
  <rect x="152" y="436" width="164" height="118" rx="16" fill="#E7E5E4"/>
  <rect x="344" y="436" width="164" height="118" rx="16" fill="#E7E5E4"/>
  <rect x="152" y="582" width="356" height="130" rx="18" fill="#F5F5F4"/>
  <rect x="614" y="138" width="422" height="298" rx="24" fill="#D6D3D1"/>
  <rect x="614" y="466" width="196" height="210" rx="20" fill="#EDE9E6"/>
  <rect x="840" y="466" width="196" height="210" rx="20" fill="#EDE9E6"/>
</svg>
