<svg width="1200" height="840" viewBox="0 0 1200 840" fill="none" xmlns="http://www.w3.org/2000/svg">
  <rect width="1200" height="840" rx="32" fill="#F5F5F4"/>
  <g filter="url(#a)">
    <rect x="180" y="102" width="820" height="602" rx="36" fill="white"/>
  </g>
  <rect x="252" y="174" width="240" height="18" rx="9" fill="#E7E5E4"/>
  <rect x="252" y="220" width="168" height="18" rx="9" fill="#D6D3D1"/>
  <rect x="252" y="288" width="276" height="292" rx="28" fill="#FAFAF9"/>
  <rect x="560" y="288" width="368" height="140" rx="28" fill="#FAFAF9"/>
  <rect x="560" y="456" width="176" height="124" rx="24" fill="#111827"/>
  <rect x="760" y="456" width="168" height="124" rx="24" fill="#DDD6FE"/>
  <path d="M644 386C678 340 730 330 774 314C816 298 860 262 892 220" stroke="#818CF8" stroke-width="16" stroke-linecap="round"/>
  <rect x="282" y="330" width="116" height="22" rx="11" fill="#E7E5E4"/>
  <rect x="282" y="374" width="174" height="18" rx="9" fill="#D6D3D1"/>
  <rect x="282" y="418" width="188" height="18" rx="9" fill="#D6D3D1"/>
  <rect x="610" y="504" width="76" height="16" rx="8" fill="#94A3B8"/>
  <rect x="610" y="538" width="96" height="44" rx="22" fill="#6366F1"/>
  <defs>
    <filter id="a" x="90" y="42" width="1000" height="722" filterUnits="userSpaceOnUse" color-interpolation-filters="sRGB">
      <feFlood flood-opacity="0" result="BackgroundImageFix"/>
      <feColorMatrix in="SourceAlpha" type="matrix" values="0 0 0 0 0 0 0 0 0 0 0 0 0 0 0 0 0 0 127 0" result="hardAlpha"/>
      <feOffset dy="18"/>
      <feGaussianBlur stdDeviation="45"/>
      <feColorMatrix type="matrix" values="0 0 0 0 0.113725 0 0 0 0 0.113725 0 0 0 0 0.121569 0 0 0 0.16 0"/>
      <feBlend mode="normal" in2="BackgroundImageFix" result="effect1_dropShadow_0_1"/>
      <feBlend mode="normal" in="SourceGraphic" in2="effect1_dropShadow_0_1" result="shape"/>
    </filter>
  </defs>
</svg>
