<svg width="1200" height="840" viewBox="0 0 1200 840" fill="none" xmlns="http://www.w3.org/2000/svg">
  <rect width="1200" height="840" rx="32" fill="#F8FAFC"/>
  <rect x="92" y="74" width="1016" height="692" rx="28" fill="white" stroke="#E2E8F0"/>
  <rect x="126" y="116" width="948" height="28" rx="14" fill="#F1F5F9"/>
  <rect x="126" y="186" width="262" height="514" rx="24" fill="#F8FAFC"/>
  <rect x="414" y="186" width="314" height="514" rx="24" fill="#F8FAFC"/>
  <rect x="754" y="186" width="286" height="230" rx="24" fill="#F8FAFC"/>
  <rect x="754" y="446" width="286" height="254" rx="24" fill="#F8FAFC"/>
  <rect x="162" y="236" width="190" height="18" rx="9" fill="#CBD5E1"/>
  <rect x="162" y="280" width="150" height="16" rx="8" fill="#E2E8F0"/>
  <rect x="448" y="236" width="246" height="18" rx="9" fill="#CBD5E1"/>
  <rect x="448" y="282" width="212" height="16" rx="8" fill="#E2E8F0"/>
  <rect x="448" y="338" width="246" height="114" rx="20" fill="#EEF2FF"/>
  <rect x="448" y="480" width="246" height="114" rx="20" fill="#F5F3FF"/>
  <rect x="788" y="234" width="216" height="18" rx="9" fill="#CBD5E1"/>
  <rect x="788" y="278" width="168" height="16" rx="8" fill="#E2E8F0"/>
  <rect x="788" y="506" width="216" height="18" rx="9" fill="#CBD5E1"/>
  <rect x="788" y="550" width="130" height="16" rx="8" fill="#E2E8F0"/>
</svg>
